# xmcd CD database file
# Copyright (C) 1996 Ti Kan
#
# Track frame offsets:
#	150
#	14837
#	32090
#	44595
#	58760
#	70412
#	85112
#	100930
#	114225
#	126067
#	137717
#	153675
#	168135
#	184050
#	197272
#	212772
#	227245
#	243337
#
# Disc length: 3428 seconds
#
# Revision: 1
# Processed by: cddbd v1.4b41PL1 Copyright (c) Steve Scherf et al.
# Submitted via: EasyCD 2.21 - (C) 1996 Greg Leichner
#
DISCID=fa0d6212
DTITLE=Charley Pride - Yours With Pride - Volume 1
DYEAR=1900
DGENRE=
TTITLE0=I Don't Know Why I Love You But I Do
TTITLE1=If Tomorrow Never Comes
TTITLE2=Ever Knowin
TTITLE3=Have I Got Some Blues For You
TTITLE4=After All This Time
TTITLE5=Next To You I Like Me
TTITLE6=Four In The Morning
TTITLE7=You've Got To Stand For Something
TTITLE8=Walk On By
TTITLE9=The Most Beautiful Girl In The World
TTITLE10=She's Takin It Easy
TTITLE11=You Hold My World Together
TTITLE12=The Right Love
TTITLE13=Looking At A Sure Thing
TTITLE14=Coolin Down
TTITLE15=You'll Never Walk Alone
TTITLE16=It's Just A Matter Of Time
TTITLE17=Plenty Good Lovin
EXTD=
EXTT0=
EXTT1=
EXTT2=
EXTT3=
EXTT4=
EXTT5=
EXTT6=
EXTT7=
EXTT8=
EXTT9=
EXTT10=
EXTT11=
EXTT12=
EXTT13=
EXTT14=
EXTT15=
EXTT16=
EXTT17=
PLAYORDER=
